<svg id="color" enable-background="new 0 0 24 24" height="512" viewBox="0 0 24 24" width="512" xmlns="http://www.w3.org/2000/svg"><g fill="#b0bec5"><path d="m4.75 5.5c-.552 0-1-.448-1-1v-3.5c0-.552.448-1 1-1s1 .448 1 1v3.5c0 .552-.448 1-1 1z"/><path d="m9.5 5.5c-.552 0-1-.448-1-1v-3.5c0-.552.448-1 1-1s1 .448 1 1v3.5c0 .552-.448 1-1 1z"/><path d="m14.25 5.5c-.552 0-1-.448-1-1v-3.5c0-.552.448-1 1-1s1 .448 1 1v3.5c0 .552-.448 1-1 1z"/></g><path d="m16.25 2h-13.5c-1.52 0-2.75 1.23-2.75 2.75v14.5c0 1.52 1.23 2.75 2.75 2.75h12.46c-.14-.48-.21-.98-.21-1.5v-5.25c0-.09 0-.17.01-.25.04-.78.3-1.51.72-2.12 0 0 0-.01.01-.01.13-.2.29-.39.45-.56.72-.75 1.71-1.24 2.81-1.3v-6.26c0-1.52-1.23-2.75-2.75-2.75z" fill="#eceff1"/><path d="m15.01 15c-.01.08-.01.16-.01.25v1.75h-10.25c-.55 0-1-.45-1-1s.45-1 1-1z" fill="#90a4ae"/><path d="m16.25 12c0 .11-.02.21-.06.31-.16.17-.32.36-.45.56-.01 0-.01.01-.01.01-.14.08-.31.12-.48.12h-10.5c-.55 0-1-.45-1-1s.45-1 1-1h10.5c.55 0 1 .45 1 1z" fill="#90a4ae"/><path d="m10.25 9h-5.5c-.553 0-1-.448-1-1s.447-1 1-1h5.5c.553 0 1 .448 1 1s-.447 1-1 1z" fill="#90a4ae"/><path d="m20.5 24c-1.93 0-3.5-1.57-3.5-3.5v-5.25c0-1.241 1.01-2.25 2.25-2.25s2.25 1.009 2.25 2.25v5c0 .414-.336.75-.75.75s-.75-.336-.75-.75v-5c0-.414-.337-.75-.75-.75s-.75.336-.75.75v5.25c0 1.103.897 2 2 2s2-.897 2-2v-6.75c0-.414.336-.75.75-.75s.75.336.75.75v6.75c0 1.93-1.57 3.5-3.5 3.5z" fill="#2196f3"/></svg>